<svg width="360" height="120" viewBox="0 0 360 120" fill="none" xmlns="http://www.w3.org/2000/svg">
  <g filter="url(#markGlow)">
    <path d="M21 31H53C60 31 66 34 70 40L101 82L132 40C136 34 142 31 149 31H185C193 31 199 37 199 45V86C199 94 193 100 185 100H169C161 100 155 94 155 86V64L126 98C120 105 109 105 103 97L72 56L88 90C92 99 85 108 76 108H49C42 108 36 104 33 97L8 48C4 39 11 31 21 31Z" fill="url(#markGradient)"/>
    <path d="M21 31H53C60 31 66 34 70 40L101 82L132 40C136 34 142 31 149 31H185C193 31 199 37 199 45V86C199 94 193 100 185 100H169C161 100 155 94 155 86V64L126 98C120 105 109 105 103 97L72 56L88 90C92 99 85 108 76 108H49C42 108 36 104 33 97L8 48C4 39 11 31 21 31Z" stroke="url(#markEdge)" stroke-width="1.3"/>
  </g>
  <g>
    <text x="224" y="61" font-family="Inter, Arial, sans-serif" font-size="34" font-weight="800" letter-spacing="7" fill="#14395A">VIMO</text>
    <text x="225" y="91" font-family="Inter, 'Noto Sans TC', Arial, sans-serif" font-size="22" font-weight="700" letter-spacing="2" fill="#526F8C">願動</text>
  </g>
  <defs>
    <linearGradient id="markGradient" x1="5" y1="70" x2="199" y2="70" gradientUnits="userSpaceOnUse">
      <stop stop-color="#19C8F7"/>
      <stop offset="0.36" stop-color="#1479FF"/>
      <stop offset="0.68" stop-color="#755BFF"/>
      <stop offset="1" stop-color="#F34ED2"/>
    </linearGradient>
    <linearGradient id="markEdge" x1="14" y1="31" x2="193" y2="102" gradientUnits="userSpaceOnUse">
      <stop stop-color="#00B7FF"/>
      <stop offset="0.5" stop-color="#3156F8"/>
      <stop offset="1" stop-color="#E33FD2"/>
    </linearGradient>
    <filter id="markGlow" x="-16" y="8" width="238" height="123" filterUnits="userSpaceOnUse" color-interpolation-filters="sRGB">
      <feGaussianBlur stdDeviation="8" result="blur"/>
      <feColorMatrix in="blur" type="matrix" values="0 0 0 0 0.05 0 0 0 0 0.46 0 0 0 0 1 0 0 0 0.42 0"/>
      <feBlend in="SourceGraphic" mode="normal"/>
    </filter>
  </defs>
</svg>
